# xmcd
#
# Track frame offsets: 
#        183
#        21118
#        36753
#        63178
#        83780
#        101690
#        127138
#        146048
#        163720
#        178683
#        203918
#        225998
#        254090
#        274398
#
# Disc length: 3898 seconds
#
# Revision: 0
# Processed by: cddbd v1.5.2PL0 Copyright (c) Steve Scherf et al.
# Submitted via: ExactAudioCopy v0.99pb4
#
DISCID=ca0f380e
DTITLE=The Bowler Hats - Mon Chere Amie
DYEAR=1992
DGENRE=Blues
TTITLE0=Mon Chere Amie
TTITLE1=Chimes Blues
TTITLE2=Milenberg Joys
TTITLE3=Memphis Blues
TTITLE4=Le Marchand De Poissons
TTITLE5=Apex Blues
TTITLE6=Wang Wang Blues
TTITLE7=How Long Blues
TTITLE8=Bugle Boy March
TTITLE9=St. Louis Blues
TTITLE10=Blues For Waterloo
TTITLE11=Dans  Les Rues D'Antibes
TTITLE12=Fire Boogie
TTITLE13=Dixie
EXTD=
EXTT0=
EXTT1=
EXTT2=
EXTT3=
EXTT4=
EXTT5=
EXTT6=
EXTT7=
EXTT8=
EXTT9=
EXTT10=
EXTT11=
EXTT12=
EXTT13=
PLAYORDER=
